<svg width="37" height="37" viewBox="0 0 37 37" fill="none" xmlns="http://www.w3.org/2000/svg">
<rect opacity="0.16" x="1" y="1" width="35" height="35" rx="4" fill="#E8F8E8" stroke="#41414C" stroke-width="2"/>
<path d="M9.17297 12H11.2883H28.2109" stroke="#E8F8E8" stroke-width="2" stroke-linecap="round" stroke-linejoin="round"/>
<path d="M14.4613 12V10C14.4613 9.46957 14.6842 8.96086 15.0809 8.58579C15.4776 8.21071 16.0156 8 16.5766 8H20.8073C21.3683 8 21.9064 8.21071 22.3031 8.58579C22.6998 8.96086 22.9226 9.46957 22.9226 10V12M26.0956 12V26C26.0956 26.5304 25.8727 27.0391 25.476 27.4142C25.0793 27.7893 24.5413 28 23.9803 28H13.4037C12.8426 28 12.3046 27.7893 11.9079 27.4142C11.5112 27.0391 11.2883 26.5304 11.2883 26V12H26.0956Z" stroke="#E8F8E8" stroke-width="2" stroke-linecap="round" stroke-linejoin="round"/>
</svg>
