<svg width="14" height="12" viewBox="0 0 14 12" fill="none" xmlns="http://www.w3.org/2000/svg">
<path d="M13.6945 1.08775C13.6121 0.940377 13.5013 0.810742 13.3687 0.706287C13.1026 0.496448 12.7642 0.400476 12.4276 0.439344C12.0909 0.478213 11.7834 0.648761 11.5721 0.913716L5.22923 8.91429C5.15953 9.00302 5.05777 9.06083 4.94587 9.07526C4.83396 9.08969 4.72087 9.05958 4.63094 8.99143L2.2138 7.12457C1.94373 6.91634 1.60201 6.82392 1.2638 6.86764C0.92559 6.91136 0.618602 7.08765 0.41037 7.35772C0.202137 7.62778 0.109717 7.96951 0.153439 8.30772C0.197162 8.64592 0.373447 8.95291 0.643513 9.16114L3.70694 11.5251C3.93983 11.7121 4.20926 11.8483 4.49792 11.9249C4.78657 12.0016 5.08807 12.017 5.38303 11.9702C5.678 11.9233 5.95991 11.8153 6.21064 11.6531C6.46138 11.4908 6.67539 11.2779 6.83894 11.028L13.5795 2.51143C13.6846 2.37921 13.7624 2.22754 13.8087 2.06513C13.855 1.90273 13.8687 1.73278 13.8491 1.56505C13.8295 1.39733 13.777 1.23512 13.6945 1.08775Z" fill="white"/>
</svg>
