<svg width="37" height="37" viewBox="0 0 37 37" fill="none" xmlns="http://www.w3.org/2000/svg">
<rect opacity="0.16" x="1" y="1" width="35" height="35" rx="4" fill="#E8F8E8" stroke="#41414C" stroke-width="2"/>
<path d="M17.692 25H27.211" stroke="#E8F8E8" stroke-width="2" stroke-linecap="round" stroke-linejoin="round"/>
<path d="M22.4515 8.50001C22.8722 8.10219 23.4429 7.87869 24.038 7.87869C24.3326 7.87869 24.6244 7.93356 24.8966 8.04017C25.1688 8.14677 25.4161 8.30303 25.6245 8.50001C25.8328 8.697 25.9981 8.93085 26.1108 9.18822C26.2236 9.44559 26.2816 9.72144 26.2816 10C26.2816 10.2786 26.2236 10.5544 26.1108 10.8118C25.9981 11.0692 25.8328 11.303 25.6245 11.5L12.4036 24L8.17297 25L9.23064 21L22.4515 8.50001Z" stroke="#E8F8E8" stroke-width="2" stroke-linecap="round" stroke-linejoin="round"/>
<rect x="5" y="5" width="25.384" height="24" stroke="#41414C"/>
</svg>
